<svg xmlns="http://www.w3.org/2000/svg" viewBox="0 0 100 100">
  <defs>
    <linearGradient id="grad" x1="0%" y1="0%" x2="100%" y2="100%">
      <stop offset="0%" style="stop-color:#3b82f6;stop-opacity:1" />
      <stop offset="100%" style="stop-color:#8b5cf6;stop-opacity:1" />
    </linearGradient>
  </defs>

  <!-- Background rounded square -->
  <rect width="100" height="100" rx="20" fill="url(#grad)"/>

  <!-- Brain icon simplified -->
  <g fill="#ffffff">
    <!-- Left hemisphere -->
    <path d="M30 35 Q25 35 25 40 Q25 45 27 48 Q25 50 25 55 Q25 65 35 65 Q35 55 35 50 Q33 48 35 45 Q35 40 35 35 Q35 30 30 35Z" opacity="0.9"/>

    <!-- Right hemisphere -->
    <path d="M70 35 Q75 35 75 40 Q75 45 73 48 Q75 50 75 55 Q75 65 65 65 Q65 55 65 50 Q67 48 65 45 Q65 40 65 35 Q65 30 70 35Z" opacity="0.9"/>

    <!-- Center connection -->
    <ellipse cx="50" cy="50" rx="8" ry="12" opacity="0.8"/>

    <!-- Neural connections (decorative lines) -->
    <line x1="35" y1="45" x2="45" y2="48" stroke="#ffffff" stroke-width="2" opacity="0.6"/>
    <line x1="65" y1="45" x2="55" y2="48" stroke="#ffffff" stroke-width="2" opacity="0.6"/>
    <line x1="35" y1="55" x2="45" y2="52" stroke="#ffffff" stroke-width="2" opacity="0.6"/>
    <line x1="65" y1="55" x2="55" y2="52" stroke="#ffffff" stroke-width="2" opacity="0.6"/>
  </g>
</svg>
